<?xml version="1.0" standalone="no"?>
<!DOCTYPE svg PUBLIC "-//W3C//DTD SVG 20010904//EN"
 "http://www.w3.org/TR/2001/REC-SVG-20010904/DTD/svg10.dtd">
<svg version="1.0" xmlns="http://www.w3.org/2000/svg"
 width="200.000000pt" height="200.000000pt" viewBox="0 0 200.000000 200.000000"
 preserveAspectRatio="xMidYMid meet">

<g transform="translate(0.000000,200.000000) scale(0.100000,-0.100000)"
fill="#000000" stroke="none">
<path d="M1168 1880 c-37 -20 -98 -85 -98 -106 0 -6 -25 -13 -58 -17 -82 -7
-127 -33 -206 -122 -61 -68 -70 -82 -74 -125 -5 -59 19 -115 62 -141 17 -10
44 -30 60 -45 16 -14 51 -37 79 -50 39 -18 47 -25 34 -30 -32 -12 -69 -89 -66
-136 3 -38 1 -43 -21 -49 -49 -14 -53 -11 -31 25 28 44 26 71 -4 102 -34 34
-57 26 -122 -42 -52 -54 -133 -199 -133 -240 -1 -34 -29 30 -50 113 -42 161
-11 311 89 437 35 43 41 94 15 120 -33 34 -72 23 -124 -34 -91 -98 -141 -237
-141 -390 0 -176 51 -300 176 -426 133 -134 284 -192 469 -181 161 10 292 72
407 196 81 86 130 180 153 293 20 97 20 139 0 235 -33 160 -128 306 -255 390
-34 22 -42 37 -76 134 -21 60 -40 109 -43 109 -3 -1 -21 -10 -42 -20z m22 -60
c0 -21 73 -205 84 -212 6 -4 16 -6 23 -3 16 5 94 -65 137 -124 20 -27 36 -51
36 -55 0 -3 -22 -17 -50 -31 -120 -61 -151 -122 -80 -158 28 -15 49 -17 102
-13 36 3 73 9 82 12 14 5 16 -3 16 -52 l0 -59 -109 0 c-96 0 -113 -3 -138 -21
-37 -27 -41 -59 -11 -91 25 -27 109 -73 171 -92 l37 -13 -26 -49 c-15 -27 -30
-49 -34 -49 -4 0 -24 7 -43 15 -51 21 -74 19 -102 -10 -31 -30 -32 -64 -4
-100 24 -30 24 -30 -41 -64 -82 -42 -142 -56 -255 -56 -89 0 -123 5 -177 23
-228 79 -380 289 -381 527 -1 133 41 255 120 353 33 40 63 55 63 31 0 -6 -22
-45 -50 -86 -64 -96 -90 -179 -90 -290 0 -302 193 -507 421 -449 75 20 82 25
64 49 -12 17 -18 18 -50 7 -21 -7 -69 -10 -110 -8 -63 3 -80 8 -117 34 -41 29
-43 33 -41 77 1 31 13 72 38 122 36 72 107 165 126 165 12 0 12 -33 0 -46 -5
-5 -32 -52 -60 -105 -44 -85 -49 -98 -36 -109 13 -11 24 -4 68 43 52 55 96 77
157 77 113 0 210 -103 210 -223 0 -37 19 -54 39 -34 33 33 -3 160 -64 224 -32
34 -44 54 -48 88 -6 38 -4 46 13 55 16 8 27 7 50 -7 22 -13 33 -14 41 -6 17
17 4 40 -31 58 -44 23 -84 11 -131 -37 -51 -53 -88 -43 -58 15 52 101 175 123
252 46 51 -51 87 -25 41 30 -42 50 -133 89 -193 83 -66 -6 -113 12 -172 64
-27 24 -54 44 -59 44 -15 0 -40 56 -40 88 0 35 14 49 55 54 32 3 47 34 25 48
-19 12 59 83 106 98 63 18 84 16 84 -10 0 -38 16 -55 37 -41 10 6 17 17 15 24
-2 7 0 30 3 52 9 51 85 138 85 97z m323 -484 c15 -43 15 -44 -6 -50 -12 -3
-53 -6 -92 -6 -69 0 -69 0 -50 20 15 14 120 79 132 80 0 0 8 -20 16 -44z m22
-265 c7 -12 -14 -99 -25 -106 -13 -8 -143 44 -175 70 l-30 24 25 10 c32 13
197 14 205 2z m-169 -291 l27 -11 -24 -25 c-23 -24 -23 -24 -42 -5 -11 11 -17
26 -14 35 7 19 16 20 53 6z"/>
<path d="M924 1615 c-8 -21 4 -35 31 -35 12 0 25 -7 29 -15 3 -8 15 -15 26
-15 26 0 27 40 2 63 -23 21 -81 22 -88 2z"/>
<path d="M900 1497 c0 -7 36 -25 83 -40 95 -31 107 -32 107 -13 0 9 -29 24
-78 40 -86 29 -112 32 -112 13z"/>
<path d="M910 1445 c0 -18 116 -98 130 -90 19 12 10 23 -53 64 -70 45 -77 48
-77 26z"/>
<path d="M856 451 c-9 -10 -24 -50 -34 -89 -15 -62 -21 -73 -46 -83 -29 -13
-66 -62 -66 -90 0 -9 -9 -24 -19 -33 -27 -25 -35 -5 -21 55 7 27 10 56 6 64
-7 20 -34 8 -41 -18 -12 -44 -38 -97 -48 -97 -6 0 -7 23 -4 60 4 32 3 62 -2
65 -16 9 -40 -24 -46 -63 -9 -52 -18 -67 -48 -70 -21 -3 -29 3 -43 30 -9 18
-23 40 -31 50 -13 14 -12 17 6 23 54 17 79 101 44 144 -35 43 -146 45 -202 4
-108 -80 -100 -301 10 -303 34 0 45 14 56 69 4 25 13 46 19 48 7 2 26 -21 43
-51 35 -62 64 -77 115 -58 20 8 34 8 40 2 17 -17 45 -11 56 10 11 21 11 21 30
-2 17 -21 21 -22 50 -11 22 8 39 9 51 3 26 -14 55 -12 69 5 12 14 15 14 30 0
21 -19 49 -19 74 0 16 12 21 12 40 0 11 -8 35 -15 52 -15 39 0 98 39 102 68 4
28 -3 28 -40 -3 -17 -14 -42 -25 -59 -25 -35 0 -38 13 -5 28 56 25 70 94 23
111 -50 19 -107 -31 -107 -93 0 -33 -32 -52 -50 -31 -11 13 -6 30 24 95 41 87
57 179 36 205 -17 20 -43 19 -64 -4z m34 -92 c-6 -30 -17 -65 -24 -79 -13 -23
-14 -21 -9 25 8 78 23 129 35 117 7 -7 6 -27 -2 -63z m-489 21 c26 -15 25 -64
-3 -90 -36 -33 -51 -26 -45 21 9 69 -44 64 -57 -5 -4 -19 -13 -37 -21 -40 -18
-6 -20 -33 -4 -38 17 -6 2 -78 -15 -78 -19 0 -26 23 -26 86 0 62 17 102 56
133 29 23 83 28 115 11z m602 -144 c5 -13 -21 -46 -36 -46 -12 0 -8 35 5 48
16 16 25 15 31 -2z m-199 -32 c7 -37 -5 -64 -29 -64 -21 0 -26 29 -10 66 18
44 31 43 39 -2z"/>
<path d="M1709 421 c-15 -16 -34 -50 -41 -76 -9 -33 -20 -50 -35 -56 -28 -11
-30 -29 -3 -36 31 -8 26 -54 -9 -87 -35 -34 -45 -22 -31 36 14 60 13 68 -9 68
-11 0 -23 5 -26 10 -17 28 -100 -33 -110 -82 -8 -35 -37 -48 -106 -48 -68 0
-99 30 -99 95 0 85 42 145 101 145 28 0 39 -15 39 -55 0 -29 16 -41 35 -25 19
16 19 70 0 97 -38 54 -151 29 -200 -45 -36 -54 -44 -135 -19 -187 30 -64 121
-91 218 -64 27 8 41 8 49 0 16 -16 53 -13 67 4 12 14 15 14 30 0 23 -20 40
-19 66 6 l23 21 27 -21 c45 -35 107 -22 134 30 18 33 1 41 -32 14 -46 -39 -69
-31 -81 30 -8 42 2 53 48 57 44 3 57 31 18 36 l-22 3 19 32 c31 50 23 127 -13
127 -5 0 -22 -13 -38 -29z m32 -64 c-7 -20 -19 -41 -28 -49 -15 -12 -16 -10
-9 17 13 56 28 87 39 76 6 -6 5 -22 -2 -44z m-197 -144 c-9 -49 -22 -75 -37
-70 -21 6 -19 52 3 80 30 38 42 34 34 -10z"/>
</g>
</svg>
